<?xml version="1.0" standalone="no"?>
<!DOCTYPE svg PUBLIC "-//W3C//DTD SVG 20010904//EN"
 "http://www.w3.org/TR/2001/REC-SVG-20010904/DTD/svg10.dtd">
<svg version="1.0" xmlns="http://www.w3.org/2000/svg"
 width="1024.000000pt" height="1024.000000pt" viewBox="0 0 1024.000000 1024.000000"
 preserveAspectRatio="xMidYMid meet">

<g transform="translate(0.000000,1024.000000) scale(0.100000,-0.100000)"
fill="#000000" stroke="none">
<path d="M4937 8182 c-30 -32 -32 -60 -27 -294 5 -217 7 -236 28 -275 103
-193 346 -233 493 -82 80 82 89 120 89 379 0 216 0 219 -24 246 -47 55 -138
24 -150 -51 -2 -16 -5 -115 -5 -219 l-1 -188 -39 -39 c-33 -33 -45 -39 -81
-39 -48 0 -86 19 -115 58 -18 25 -20 45 -23 247 l-3 220 -27 28 c-31 33 -89
37 -115 9z"/>
<path d="M4275 8049 c-126 -38 -242 -74 -257 -80 -51 -21 -61 -96 -18 -139 25
-25 51 -25 131 -1 113 34 109 36 134 -44 11 -38 41 -146 65 -238 49 -189 65
-217 125 -217 50 0 85 36 85 87 0 20 -18 100 -39 178 -22 77 -51 181 -64 231
l-25 92 84 22 c91 24 124 50 124 99 -1 44 -44 82 -92 80 -13 0 -126 -31 -253
-70z"/>
<path d="M5888 8055 c-32 -18 -38 -35 -128 -390 -66 -261 -67 -275 -12 -311
39 -26 192 -31 267 -9 133 38 218 137 245 283 28 159 -59 331 -205 403 -76 37
-130 45 -167 24z m143 -227 c77 -81 63 -245 -24 -298 -34 -21 -97 -27 -97 -10
0 9 63 272 76 318 5 18 21 15 45 -10z"/>
<path d="M6463 7870 c-12 -5 -29 -21 -39 -35 -15 -23 -16 -39 -5 -169 19 -242
19 -237 -49 -369 -64 -125 -66 -132 -48 -171 20 -45 95 -52 136 -13 13 12 44
61 67 108 l44 86 142 89 c187 116 199 126 199 173 0 46 -36 84 -77 84 -16 0
-71 -26 -128 -61 l-100 -61 -11 128 c-14 165 -18 178 -57 201 -35 22 -42 23
-74 10z"/>
<path d="M3591 7759 c-98 -19 -202 -99 -244 -189 -32 -69 -30 -161 5 -222 15
-25 42 -55 60 -66 68 -42 108 -39 312 22 98 29 116 25 116 -24 0 -51 -74 -100
-151 -100 -33 0 -75 -32 -83 -64 -16 -64 43 -112 127 -103 115 14 231 98 267
195 33 87 22 161 -32 227 -58 70 -125 80 -262 40 -141 -41 -176 -47 -192 -34
-23 19 -16 56 16 92 23 27 45 38 97 52 98 24 137 68 113 126 -19 44 -75 62
-149 48z"/>
<path d="M2836 7188 c-21 -30 -20 -61 2 -81 40 -36 102 -9 102 45 0 53 -74 79
-104 36z"/>
<path d="M6885 7175 c-33 -32 -31 -60 5 -96 l30 -30 236 3 236 3 24 28 c29 34
30 56 3 91 l-20 26 -245 0 -245 0 -24 -25z"/>
<path d="M4870 6985 c-636 -88 -1169 -423 -1495 -940 -188 -297 -305 -652
-317 -960 l-3 -80 206 -3 207 -2 6 67 c39 382 173 706 401 965 270 308 674
508 1109 548 305 29 682 -65 978 -244 l57 -34 216 86 c118 48 216 91 217 97 3
14 -96 92 -217 173 -196 131 -480 251 -695 296 -222 45 -479 57 -670 31z
m-1412 -1280 c72 -60 32 -165 -62 -165 -37 0 -48 5 -70 31 -36 43 -35 91 3
130 38 38 87 39 129 4z"/>
<path d="M2900 6900 c-27 -27 -26 -81 1 -106 19 -17 40 -19 271 -19 l250 0 24
28 c31 36 30 61 -1 92 l-24 25 -251 0 c-237 0 -251 -1 -270 -20z"/>
<path d="M7325 6868 c-28 -16 -35 -28 -35 -64 0 -19 8 -38 21 -50 19 -17 37
-19 156 -19 l135 0 24 28 c29 34 30 56 3 91 -20 26 -22 26 -152 26 -79 0 -140
-5 -152 -12z"/>
<path d="M6890 6790 c-45 -45 -2 -117 53 -89 28 15 37 28 37 56 0 49 -54 69
-90 33z"/>
<path d="M2596 6605 c-25 -23 -26 -27 -26 -140 l0 -115 -109 0 c-94 0 -112 -3
-135 -21 -35 -27 -36 -86 -3 -117 20 -19 36 -22 132 -24 l110 -3 5 -121 c4
-101 8 -126 24 -143 26 -29 88 -29 116 1 24 26 24 27 25 158 l0 105 115 3
c101 2 117 5 137 24 29 27 30 77 4 109 -18 22 -28 24 -137 29 l-119 5 -2 115
c-2 110 -3 116 -28 138 -34 29 -75 28 -109 -3z"/>
<path d="M6915 6481 c-102 -36 -1473 -585 -1965 -786 -206 -85 -544 -222 -750
-306 -206 -83 -392 -158 -412 -167 -21 -8 -38 -19 -38 -23 0 -11 112 -71 422
-225 142 -71 258 -133 258 -138 0 -5 -32 -49 -71 -98 l-70 -89 21 -36 c62
-106 358 -423 395 -423 20 0 120 51 164 84 34 25 51 26 51 2 0 -21 180 -682
206 -755 3 -9 14 0 31 25 33 50 276 435 453 719 75 121 274 438 441 705 657
1045 955 1527 948 1535 -3 2 -40 -9 -84 -24z m-1292 -927 c63 -21 149 -100
183 -170 55 -113 40 -257 -37 -354 -72 -91 -159 -132 -279 -133 -95 -1 -176
33 -243 101 -66 69 -90 120 -95 212 -6 102 15 173 71 242 91 112 248 152 400
102z"/>
<path d="M4941 6404 c-16 -20 -21 -41 -21 -84 l0 -57 -72 -5 c-79 -6 -98 -20
-98 -70 0 -48 31 -68 105 -68 l65 0 0 -65 c0 -57 3 -69 25 -90 28 -29 46 -31
80 -9 23 15 25 23 25 90 l0 74 65 0 c57 0 69 3 90 25 30 29 32 55 6 86 -17 21
-28 24 -90 24 l-71 0 0 72 c0 63 -3 74 -22 87 -33 23 -64 19 -87 -10z"/>
<path d="M7407 6333 c-9 -2 -24 -17 -32 -33 -17 -33 -4 -84 25 -100 10 -6 102
-10 203 -10 171 0 186 1 211 21 36 28 36 80 0 108 -25 20 -39 21 -208 20 -99
-1 -189 -3 -199 -6z"/>
<path d="M4156 6131 c-20 -22 -24 -38 -25 -101 l-1 -45 -66 -1 c-57 0 -69 -3
-85 -23 -47 -58 -3 -111 92 -111 l59 0 0 -65 c0 -75 20 -105 68 -105 47 0 66
31 65 104 l0 64 69 4 c59 3 74 8 89 27 25 30 24 63 -2 87 -16 15 -37 19 -88
19 l-66 1 0 63 c-1 54 -4 66 -24 82 -30 24 -63 24 -85 0z"/>
<path d="M6838 5943 c-14 -21 -73 -116 -131 -211 l-104 -173 39 -91 c45 -105
84 -254 99 -388 15 -119 6 -377 -16 -490 -36 -183 -145 -453 -237 -588 -192
-283 -451 -495 -744 -611 -255 -101 -481 -137 -744 -119 -143 9 -238 28 -385
75 -623 200 -1044 706 -1130 1356 -8 65 -15 120 -15 123 0 2 -95 4 -211 4
l-210 0 6 -72 c47 -534 271 -1000 656 -1362 340 -320 830 -521 1319 -543 321
-14 684 61 982 205 540 259 956 768 1103 1351 91 362 78 785 -35 1131 -32 97
-164 376 -198 418 l-18 24 -26 -39z m22 -1689 c19 -19 25 -35 25 -69 0 -56
-26 -84 -83 -92 -36 -5 -45 -2 -72 25 -92 92 36 226 130 136z"/>
<path d="M7660 5960 c-26 -26 -26 -70 0 -98 20 -21 29 -22 186 -22 162 0 165
0 189 25 14 13 25 31 25 40 0 20 -19 57 -34 67 -6 4 -86 8 -178 8 -155 0 -170
-2 -188 -20z"/>
<path d="M7247 5939 c-45 -27 -40 -101 8 -119 35 -13 80 10 89 46 14 54 -50
101 -97 73z"/>
<path d="M7820 5630 c-39 -39 -11 -110 44 -110 25 0 66 41 66 67 0 21 -46 63
-70 63 -11 0 -29 -9 -40 -20z"/>
<path d="M2055 5595 c-28 -27 -31 -46 -13 -78 24 -46 25 -46 391 -47 l348 0
24 25 c32 31 33 74 2 103 -23 22 -28 22 -376 22 l-352 0 -24 -25z"/>
<path d="M7407 5512 c-41 -45 0 -114 55 -93 42 16 50 59 18 91 -25 25 -52 26
-73 2z"/>
<path d="M7780 5357 c-117 -34 -185 -89 -235 -190 -102 -207 -12 -436 204
-518 85 -32 197 -24 286 21 78 39 137 100 173 178 24 50 27 70 27 157 0 121
-18 168 -95 249 -89 95 -240 138 -360 103z m150 -245 c19 -9 45 -32 57 -51 58
-86 -5 -194 -113 -194 -101 0 -169 115 -115 197 42 63 105 81 171 48z"/>
<path d="M2260 5106 c-105 -29 -183 -95 -232 -194 -19 -40 -23 -63 -23 -147 0
-85 4 -106 24 -144 35 -66 107 -137 170 -168 49 -25 67 -28 151 -28 114 1 164
20 241 92 145 135 153 347 21 487 -95 99 -225 137 -352 102z m181 -166 c50
-26 96 -89 105 -145 20 -136 -112 -251 -247 -215 -78 21 -149 114 -149 195 0
11 11 43 24 71 23 49 59 84 107 103 42 17 117 12 160 -9z"/>
<path d="M2302 4820 c-15 -14 -22 -33 -22 -56 0 -28 6 -38 32 -54 38 -23 64
-19 96 16 27 31 28 54 1 88 -26 33 -75 35 -107 6z"/>
<path d="M3805 4775 c-39 -38 -27 -102 22 -124 35 -16 48 -14 82 15 41 34 43
83 5 113 -36 28 -79 27 -109 -4z"/>
<path d="M6226 4689 c-33 -26 -35 -75 -5 -113 28 -35 80 -36 114 -1 73 72 -28
178 -109 114z"/>
<path d="M4120 4494 l-55 -25 -69 -269 c-66 -258 -68 -271 -52 -295 9 -14 22
-25 29 -25 14 0 581 102 585 105 5 4 23 188 19 192 -2 2 -61 -5 -130 -15 -70
-10 -127 -18 -127 -17 0 0 20 45 45 100 24 54 42 102 40 106 -3 4 -37 0 -77
-7 -40 -8 -87 -17 -104 -20 l-30 -6 14 86 c21 126 13 135 -88 90z"/>
<path d="M7405 4335 c-33 -32 -31 -60 4 -96 l29 -29 272 0 271 0 24 25 c34 33
33 77 -1 104 -26 20 -39 21 -301 21 l-274 0 -24 -25z"/>
<path d="M5895 4114 c-16 -12 -20 -29 -23 -89 l-4 -74 -76 -3 c-70 -3 -77 -5
-91 -29 -18 -32 -8 -74 22 -90 12 -7 50 -13 83 -13 l62 -1 4 -74 c6 -80 19
-101 65 -101 43 0 63 33 63 105 l0 65 43 0 c90 0 137 27 137 79 0 42 -34 61
-110 61 l-70 0 0 74 c0 66 -3 77 -22 90 -28 20 -57 20 -83 0z"/>
<path d="M2530 4048 c-11 -18 -20 -36 -20 -41 0 -4 -23 -54 -51 -112 -49 -101
-53 -106 -120 -150 -81 -54 -109 -87 -109 -127 0 -35 40 -78 73 -78 13 0 45 7
71 16 l48 17 68 -68 c93 -92 101 -89 175 65 78 163 78 164 160 220 40 29 81
62 89 75 24 36 21 91 -6 109 -33 23 -68 20 -134 -14 -32 -16 -59 -28 -59 -27
-1 1 -28 35 -59 75 -68 84 -94 92 -126 40z"/>
<path d="M7890 3990 c-29 -29 -26 -74 6 -99 15 -12 32 -21 39 -21 7 0 24 9 39
21 48 38 22 119 -39 119 -14 0 -34 -9 -45 -20z"/>
<path d="M7239 3872 c-28 -23 -30 -73 -4 -102 15 -17 31 -20 94 -20 98 0 119
-6 136 -41 24 -46 19 -87 -16 -121 -30 -31 -30 -31 -121 -26 -50 3 -106 1
-125 -4 -56 -15 -70 -71 -28 -113 23 -24 29 -25 166 -25 163 0 208 13 257 78
24 32 27 45 31 131 3 107 -7 156 -45 201 -44 52 -71 60 -202 60 -102 0 -123
-3 -143 -18z"/>
<path d="M4693 3700 c-47 -19 -58 -92 -20 -128 32 -30 81 -29 112 3 33 33 32
70 -4 106 -30 30 -50 34 -88 19z"/>
<path d="M5472 3630 c-46 -44 -11 -130 53 -130 68 0 106 71 65 123 -27 34 -85
38 -118 7z"/>
<path d="M3159 3445 c-141 -28 -223 -171 -175 -305 l16 -45 -60 -57 c-33 -32
-63 -70 -66 -85 -9 -34 13 -74 48 -91 35 -17 69 -3 164 67 57 41 78 51 111 51
60 0 131 28 170 68 171 170 27 445 -208 397z m99 -163 c13 -10 25 -33 28 -54
6 -32 2 -41 -24 -68 -38 -37 -70 -38 -111 -4 -84 70 20 193 107 126z"/>
<path d="M6680 3130 c-27 -27 -26 -71 3 -98 23 -22 29 -22 319 -22 163 0 304
3 313 6 8 4 22 19 30 35 18 33 7 72 -24 88 -13 7 -128 11 -320 11 -288 0 -302
-1 -321 -20z"/>
<path d="M7149 2801 c-56 -57 -23 -141 56 -141 80 0 115 93 54 144 -40 34 -74
33 -110 -3z"/>
<path d="M3701 2793 c-29 -28 -37 -42 -146 -248 -32 -60 -77 -144 -101 -186
-78 -135 -63 -168 114 -252 129 -61 201 -72 274 -39 80 35 130 135 108 213
-13 46 -14 45 19 58 36 16 87 68 100 104 18 46 13 126 -10 174 -26 55 -82 103
-185 159 -96 52 -131 56 -173 17z m132 -184 c37 -19 77 -62 77 -83 0 -25 -28
-56 -51 -56 -24 0 -109 41 -109 52 0 19 46 98 57 98 2 0 14 -5 26 -11z m-113
-259 c61 -31 81 -94 39 -123 -25 -18 -52 -12 -106 25 l-42 28 26 45 c13 25 29
45 34 45 6 0 27 -9 49 -20z"/>
<path d="M6395 2767 c-39 -18 -140 -64 -225 -102 -85 -38 -165 -77 -177 -88
-27 -24 -31 -81 -7 -115 25 -35 71 -28 211 33 70 30 128 53 131 50 2 -2 -32
-114 -77 -247 -44 -134 -81 -260 -81 -279 0 -41 33 -79 69 -79 30 0 490 216
518 243 12 12 25 36 29 54 5 26 1 37 -19 57 -15 15 -37 26 -53 26 -15 0 -86
-27 -156 -60 -71 -33 -134 -60 -140 -60 -6 0 -7 8 -3 18 31 80 165 490 165
505 0 29 -54 77 -87 77 -16 0 -60 -15 -98 -33z"/>
<path d="M4336 2528 c-18 -17 -47 -86 -107 -253 -126 -357 -124 -347 -104
-388 9 -20 28 -40 43 -46 70 -28 388 -101 414 -96 36 8 58 40 58 83 0 57 -29
75 -184 111 l-138 33 7 26 c3 15 37 115 75 223 86 245 85 240 66 278 -29 55
-86 68 -130 29z"/>
<path d="M5620 2484 c-41 -8 -133 -21 -205 -29 -71 -9 -140 -18 -153 -21 -63
-13 -84 -93 -36 -141 27 -27 17 -27 185 -6 l46 5 6 -38 c29 -199 69 -436 78
-467 8 -30 18 -42 45 -53 32 -14 39 -13 72 3 60 29 61 44 18 306 -21 128 -40
242 -43 255 -4 18 -1 22 18 22 12 0 51 5 86 11 77 14 103 36 103 90 0 78 -55
94 -220 63z"/>
<path d="M4911 2412 c-31 -30 -27 0 -51 -451 -12 -217 -8 -241 42 -267 41 -21
90 -4 111 39 16 32 37 359 37 574 0 87 -1 93 -26 112 -37 29 -80 27 -113 -7z"/>
</g>
</svg>
